<svg xmlns="http://www.w3.org/2000/svg" xml:space="preserve" viewBox="0 0 112.56 122.88"><path d="M62.29 3.76c-.79-1.02-.6-2.48.42-3.27s2.48-.6 3.27.42c2.64 3.43 1.53 7.13.25 11.4-1.24 4.12-2.67 8.92.34 13.67.69 1.09.37 2.53-.72 3.23-1.09.69-2.53.37-3.23-.72-4.15-6.55-2.39-12.44-.87-17.51.92-3.05 1.72-5.7.54-7.22M88.1 38v15.97c.84-.03 1.72-.07 2.61-.11 6.23-.31 12.62-.62 17.45 4.29 3.14 3.19 4.64 7.76 4.36 12.56-.14 2.5-.77 5.08-1.9 7.56a23.1 23.1 0 0 1-4.86 6.91c-5.08 5-13.09 8.5-24.25 8.14-1.47 2.2-3.15 4.25-5.01 6.12-7.16 7.16-17.03 11.6-27.89 11.6h-9.13c-10.86 0-20.73-4.44-27.89-11.6C4.44 92.27 0 82.39 0 71.53V38c0-1.29 1.05-2.34 2.34-2.34h83.42c1.29 0 2.34 1.04 2.34 2.34m0 20.63v12.9c0 6.12-1.41 11.93-3.92 17.11 8.4-.22 14.44-2.99 18.32-6.81 1.71-1.68 3-3.57 3.89-5.52.88-1.93 1.37-3.93 1.48-5.88.2-3.52-.84-6.81-3.03-9.03-3.36-3.42-8.7-3.15-13.9-2.9-.94.06-1.87.11-2.84.13m-4.68 12.9v-31.2H4.68v31.2c0 9.57 3.92 18.27 10.23 24.58s15.01 10.23 24.58 10.23h9.13c9.57 0 18.27-3.92 24.58-10.23 6.3-6.31 10.22-15.01 10.22-24.58M3.26 122.88c-1.29 0-2.34-1.05-2.34-2.34s1.05-2.34 2.34-2.34h82.9c1.29 0 2.34 1.05 2.34 2.34s-1.05 2.34-2.34 2.34zM23.44 3.76c-.79-1.02-.6-2.48.42-3.27s2.48-.6 3.27.42c2.64 3.43 1.53 7.13.25 11.4-1.24 4.12-2.67 8.92.34 13.67.69 1.09.37 2.53-.72 3.23-1.09.69-2.53.37-3.23-.72-4.15-6.55-2.39-12.44-.87-17.51.92-3.05 1.71-5.7.54-7.22m19.43 0c-.79-1.02-.6-2.48.42-3.27s2.48-.6 3.27.42c2.64 3.43 1.53 7.13.25 11.4-1.24 4.12-2.67 8.92.34 13.67.69 1.09.37 2.53-.72 3.23-1.09.69-2.53.37-3.23-.72-4.16-6.55-2.39-12.44-.87-17.51.92-3.05 1.71-5.7.54-7.22"/></svg>