<svg xmlns="http://www.w3.org/2000/svg" width="541.438" height="541.437"><path d="M349.305 210.444c-149.516 0-270.719 121.203-270.719 270.718v270.47h259.375c3.761.154 7.545.25 11.344.25 149.515 0 270.719-121.204 270.719-270.72 0-149.515-121.204-270.718-270.72-270.718" style="fill:#ff5900;fill-opacity:1;stroke:none" transform="translate(-78.586 -210.444)"/><path d="M349.305 273.287c-114.8 0-207.875 93.075-207.875 207.875v270.469h83.187v-270.25c0-68.64 55.64-124.312 124.282-124.312 68.64 0 124.28 55.671 124.28 124.312S417.54 605.662 348.9 605.662c-25.096 0-48.463-7.458-68-20.25v89.344c13.09 8.055 42.976 13.744 78.03 14.031 110.33-5.033 198.25-96.053 198.25-207.625 0-114.8-93.074-207.875-207.874-207.875m-8.719 415.532c2.888.119 5.802.218 8.719.218 3.07 0 6.118-.087 9.156-.218z" style="fill:#fff;fill-opacity:1;stroke:none" transform="translate(-78.586 -210.444)"/></svg>