<svg xmlns="http://www.w3.org/2000/svg" viewBox="0 0 24 24">
  <path d="M13.582 12.642a65.81 65.81 0 0 0 8.656-.64c-3.832-.16-8.375-.48-11.657-2.16-1.695-.88-2.406-2.08-2.406-2.08s.77.48 1.726.88c2.238 1.04 5.04 1.2 7.923 1.12 3.68-.16 7.603-.8 8.895-.72.532.04 1.054.24 1.294.48.214.22.374.48.314.8-.128.64-.854 1.2-1.702 1.36-2.006.32-4.532-.04-6.752-.8a58.37 58.37 0 0 1-4.691-2.08l-.16-.08c-.32-.24-.48-.64-.56-.96-.08-.24-.024-.48.104-.64l.24-.16c.32-.2.752-.32 1.024-.11.752.43 1.504.86 2.248 1.18zM8.74 18.16c-.896-.64-1.44-1.68-1.44-2.84 0-1.16.544-2.2 1.44-2.84.896-.64 2.128-1.04 3.36-1.04s2.464.4 3.36 1.04c.896.64 1.44 1.68 1.44 2.84 0 1.16-.544 2.2-1.44 2.84-.896.64-2.128 1.04-3.36 1.04s-2.464-.4-3.36-1.04z"/>
</svg>